<?xml version="1.0" encoding="utf-8"?>
<!-- Generator: Adobe Illustrator 20.1.0, SVG Export Plug-In . SVG Version: 6.00 Build 0)  -->
<svg version="1.1" id="Layer_1" xmlns="http://www.w3.org/2000/svg" xmlns:xlink="http://www.w3.org/1999/xlink" x="0px" y="0px"
	 viewBox="0 0 500 150" style="enable-background:new 0 0 500 150;" xml:space="preserve">
<g>
	<path class="st0" d="M19.7,70.5c0-0.6,0.2-1.1,0.5-1.4c0.3-0.3,0.8-0.5,1.4-0.5h26.7c1.9,0,3.7,0.3,5.4,0.8
		c1.7,0.5,3.3,1.3,4.7,2.2c1.4,0.9,2.7,2,3.8,3.3c1.1,1.3,2.1,2.7,2.9,4.2c0.8,1.5,1.4,3.1,1.8,4.7c0.4,1.7,0.6,3.3,0.6,5
		c0,2.5-0.5,5-1.4,7.4c-0.9,2.4-2.2,4.5-3.9,6.4s-3.7,3.4-6,4.5c-2.3,1.2-4.9,1.8-7.8,1.8H35.9v19.9c0,1.2-0.6,1.8-1.9,1.8H21.6
		c-0.6,0-1-0.1-1.3-0.4c-0.3-0.3-0.5-0.7-0.5-1.4V70.5z M51.2,88.8c0-0.8-0.1-1.7-0.4-2.5c-0.3-0.8-0.7-1.6-1.3-2.2
		c-0.6-0.7-1.2-1.2-2-1.6c-0.8-0.4-1.7-0.6-2.7-0.6h-8.9v14h8.9c1,0,1.9-0.2,2.7-0.6s1.5-0.9,2-1.6c0.5-0.6,1-1.4,1.3-2.2
		C51.1,90.6,51.2,89.7,51.2,88.8z"/>
	<path class="st0" d="M81.4,80.7c0-0.5,0.1-0.9,0.3-1.4c0.2-0.4,0.5-0.8,0.8-1c0.7-0.5,1.5-0.7,2.3-0.7h6.3c0.5,0,0.9,0.1,1.3,0.3
		c0.3,0.2,0.6,0.4,0.8,0.8c0.2,0.3,0.4,0.7,0.5,1c0.2,0.4,0.3,0.8,0.6,1.2c0.1,0.1,0.2,0.4,0.3,0.8c0.2,0.4,0.3,0.9,0.5,1.4
		c0.2,0.5,0.4,1,0.6,1.5c0.2,0.5,0.3,0.8,0.4,0.9c0.8-0.9,1.6-1.9,2.4-2.9c0.8-1,1.6-2,2.4-2.8c0.9-0.9,1.8-1.6,2.9-2.1
		c1.1-0.6,2.3-0.8,3.8-0.8c1.5,0,2.9,0.1,4,0.3c1.2,0.2,2.3,0.6,3.4,1c1.1,0.4,2.1,1,3.2,1.7s2.2,1.5,3.4,2.3c1.9,1,2.3,2.6,1.1,4.6
		l-3.8,6.5c-0.6,0.8-1.2,1.4-2,1.5s-1.7,0.1-2.6-0.4c-1.2-1.2-2.4-2-3.7-2.6c-1.2-0.6-2.7-0.9-4.2-0.9c-1.1,0-2,0.2-2.9,0.5
		c-0.8,0.3-1.6,0.7-2.2,1.3c-0.7,0.6-1.3,1.2-1.9,2c-0.6,0.8-1.2,1.6-1.8,2.6v30.3c0,1.1-0.3,1.9-0.8,2.4c-0.5,0.5-1.4,0.8-2.6,0.8
		h-9.4c-2.2,0-3.3-1.1-3.3-3.2V80.7z"/>
	<path class="st0" d="M176.4,124.3c-2.5,2.3-5.2,4-8.3,5.3c-3.1,1.3-6.3,1.9-9.7,1.9c-3.8,0-7.4-0.7-10.8-2.1
		c-3.4-1.4-6.4-3.3-8.9-5.8c-2.6-2.5-4.6-5.4-6.1-8.7c-1.5-3.3-2.3-7-2.3-10.9c0-2.5,0.3-4.8,0.9-7.1c0.6-2.3,1.4-4.5,2.6-6.5
		c1.1-2,2.4-3.9,4-5.5c1.6-1.7,3.3-3.1,5.3-4.3c2-1.2,4.1-2.1,6.4-2.8c2.3-0.7,4.7-1,7.2-1c2.3,0,4.6,0.3,6.7,0.9
		c2.2,0.6,4.2,1.5,6.1,2.6s3.7,2.5,5.2,4c1.6,1.6,3,3.3,4.1,5.1c1.1,1.9,2,3.8,2.7,5.9c0.6,2.1,0.9,4.3,0.9,6.5c0,1.5,0,2.6-0.1,3.6
		c0,0.9-0.3,1.7-0.6,2.2c-0.4,0.5-1,0.9-1.9,1.1c-0.9,0.2-2.2,0.3-4,0.3h-30.1c0.3,1.8,0.8,3.3,1.7,4.5c0.9,1.2,1.8,2.2,2.9,2.9
		c1.1,0.7,2.3,1.2,3.6,1.5c1.3,0.3,2.4,0.5,3.6,0.5c1,0,2-0.1,3.1-0.3s2.1-0.5,3.1-0.8c1-0.3,1.9-0.8,2.7-1.2s1.5-0.9,2-1.4
		c0.4-0.4,0.8-0.6,1.1-0.8c0.3-0.2,0.7-0.3,1-0.3c0.4,0,0.7,0.1,1.1,0.4c0.4,0.3,0.8,0.6,1.3,1.1l4.4,5c0.3,0.4,0.5,0.7,0.6,1
		c0.1,0.3,0.1,0.6,0.1,0.9c0,0.6-0.2,1-0.5,1.4C177.2,123.7,176.8,124,176.4,124.3z M156.3,89.5c-1.1,0-2.1,0.2-3.2,0.6
		c-1,0.4-2,1-2.9,1.7c-0.9,0.7-1.7,1.5-2.4,2.5s-1.3,1.9-1.7,2.8h21.4c-0.6-1.1-1.2-2.1-1.9-3c-0.7-0.9-1.5-1.7-2.3-2.4
		c-0.9-0.7-1.9-1.2-3-1.6C159.1,89.7,157.8,89.5,156.3,89.5z"/>
	<path class="st0" d="M191.1,81.7c-0.6-1.1-0.7-2.1-0.3-2.9s1.2-1.2,2.5-1.2H204c0.7,0,1.4,0.2,1.9,0.6c0.5,0.4,0.9,0.9,1.2,1.7
		c0.5,1.5,1,3.1,1.6,5c0.6,1.8,1.2,3.7,1.8,5.7s1.2,3.9,1.9,5.8c0.6,1.9,1.2,3.7,1.7,5.3c0.5,1.6,1,3,1.4,4.2c0.4,1.2,0.7,2,0.9,2.5
		l8.9-28.4c0.4-0.9,0.8-1.5,1.2-1.8c0.5-0.3,1.1-0.5,1.9-0.5h11c0.8,0,1.4,0.1,1.8,0.3c0.4,0.2,0.7,0.5,0.8,0.8
		c0.1,0.3,0.2,0.7,0.1,1.2c-0.1,0.4-0.2,0.9-0.4,1.4l-19.9,47.7c-0.3,0.5-0.7,0.9-1.1,1.3c-0.4,0.3-1,0.5-1.9,0.5h-5
		c-1.1,0-1.9-0.2-2.4-0.5c-0.5-0.3-0.8-0.8-1-1.3L191.1,81.7z"/>
	<path class="st0" d="M254.4,59.7c0-1.2,0.3-2,0.8-2.5c0.5-0.5,1.3-0.7,2.3-0.7h9.7c1,0,1.8,0.2,2.4,0.7c0.6,0.5,0.9,1.3,0.9,2.5
		v8.2c0,0.3-0.1,0.7-0.2,1.1c-0.2,0.4-0.4,0.8-0.6,1.1c-0.3,0.4-0.6,0.7-1,0.9s-0.9,0.4-1.4,0.4h-9.7c-2.1,0-3.1-1.2-3.1-3.5V59.7z
		 M254.4,80.8c0-0.9,0.3-1.7,0.8-2.3c0.5-0.6,1.3-1,2.3-1h9.6c0.3,0,0.7,0.1,1.1,0.2c0.4,0.2,0.8,0.4,1.1,0.7c0.3,0.3,0.6,0.6,0.9,1
		s0.4,0.8,0.4,1.3v46.6c0,1.1-0.3,1.9-0.9,2.4c-0.6,0.5-1.4,0.8-2.5,0.8h-9.6c-2.1,0-3.1-1.1-3.1-3.2V80.8z"/>
	<path class="st0" d="M306.4,70.2c0-0.2,0.1-0.3,0.3-0.5c0.2-0.2,0.3-0.4,0.6-0.5c0.2-0.2,0.5-0.3,0.7-0.4s0.5-0.1,0.7-0.1h10.7
		c0.5,0,0.9,0.1,1.2,0.4c0.3,0.3,0.6,0.6,0.8,0.8l1,2.4l22,56.6c0.2,0.6,0.2,1-0.1,1.4c-0.3,0.3-0.8,0.5-1.6,0.5h-12
		c-0.6,0-1.1-0.1-1.5-0.4c-0.3-0.2-0.6-0.6-0.8-1.2c-0.6-1.4-1.1-2.8-1.6-4.2c-0.5-1.4-1.1-2.8-1.6-4.2h-22.2
		c-0.5,1.4-1.1,2.8-1.6,4.2c-0.5,1.4-1.1,2.8-1.6,4.2c-0.4,1-1.1,1.5-2.1,1.5h-12.3c-0.5,0-1-0.1-1.3-0.4s-0.4-0.7-0.2-1.3
		L306.4,70.2z M314,88.1c-0.5,1.4-1.1,3-1.6,4.6c-0.5,1.6-1.1,3.3-1.6,5c-0.5,1.7-1.1,3.3-1.6,5s-1.1,3.2-1.6,4.6h12.8L314,88.1z"/>
	<path class="st0" d="M358.5,78.1c0.4-0.3,0.7-0.5,1.1-0.6c0.4-0.1,0.8-0.1,1.1-0.1h6.3c0.5,0,1,0.1,1.3,0.3
		c0.3,0.2,0.6,0.4,0.9,0.7c0.2,0.3,0.4,0.6,0.6,1c0.2,0.4,0.3,0.8,0.4,1.2l1.8,5.1c0.8-1,1.6-2,2.4-3.1c0.8-1,1.7-2,2.8-2.8
		s2.4-1.6,3.9-2.1c1.5-0.6,3.3-0.8,5.5-0.8c3.8,0,7.3,0.7,10.6,2.1c3.2,1.4,6,3.3,8.3,5.8c2.3,2.5,4.1,5.4,5.5,8.7
		c1.3,3.3,2,6.9,2,10.8c0,3.8-0.7,7.4-2,10.8c-1.3,3.3-3.1,6.3-5.5,8.7c-2.3,2.5-5.1,4.4-8.3,5.8c-3.2,1.4-6.7,2.1-10.6,2.1
		c-1.8,0-3.4-0.2-4.7-0.6c-1.3-0.4-2.5-1-3.5-1.7c-1-0.7-1.9-1.5-2.7-2.3c-0.8-0.8-1.5-1.7-2.3-2.5V144c0,0.8-0.3,1.5-0.8,2.1
		c-0.5,0.6-1.3,0.9-2.3,0.9h-9.6c-0.3,0-0.7-0.1-1.1-0.2c-0.4-0.1-0.8-0.3-1.1-0.6c-0.3-0.3-0.6-0.6-0.8-0.9
		c-0.2-0.4-0.3-0.8-0.3-1.3V80.5c0-0.6,0.1-1,0.3-1.4S358.2,78.4,358.5,78.1z M397.6,104.2c0-1.8-0.3-3.5-0.9-5.1
		c-0.6-1.6-1.4-3-2.5-4.2c-1.1-1.2-2.3-2.1-3.8-2.8c-1.5-0.7-3.1-1-4.9-1c-1.8,0-3.4,0.3-5,1c-1.6,0.7-3,1.5-4.1,2.7
		c-1.2,1.1-2.1,2.5-2.9,4c-0.7,1.5-1.2,3.2-1.2,4.9v0.6c0,1.8,0.3,3.6,1,5.2c0.7,1.6,1.6,3,2.8,4.2c1.2,1.2,2.6,2.1,4.2,2.8
		s3.3,1,5.1,1c1.8,0,3.4-0.3,4.9-1c1.5-0.7,2.7-1.6,3.8-2.8c1.1-1.2,1.9-2.6,2.5-4.2C397.3,107.8,397.6,106,397.6,104.2z"/>
	<path class="st0" d="M428.8,78.1c0.4-0.3,0.7-0.5,1.1-0.6c0.4-0.1,0.8-0.1,1.1-0.1h6.3c0.5,0,1,0.1,1.3,0.3
		c0.3,0.2,0.6,0.4,0.9,0.7c0.2,0.3,0.4,0.6,0.6,1c0.2,0.4,0.3,0.8,0.4,1.2l1.8,5.1c0.8-1,1.6-2,2.4-3.1c0.8-1,1.7-2,2.8-2.8
		s2.4-1.6,3.9-2.1c1.5-0.6,3.3-0.8,5.5-0.8c3.8,0,7.3,0.7,10.6,2.1c3.2,1.4,6,3.3,8.3,5.8c2.3,2.5,4.1,5.4,5.5,8.7
		c1.3,3.3,2,6.9,2,10.8c0,3.8-0.7,7.4-2,10.8c-1.3,3.3-3.1,6.3-5.5,8.7c-2.3,2.5-5.1,4.4-8.3,5.8c-3.2,1.4-6.7,2.1-10.6,2.1
		c-1.8,0-3.4-0.2-4.7-0.6c-1.3-0.4-2.5-1-3.5-1.7c-1-0.7-1.9-1.5-2.7-2.3c-0.8-0.8-1.5-1.7-2.3-2.5V144c0,0.8-0.3,1.5-0.8,2.1
		c-0.5,0.6-1.3,0.9-2.3,0.9h-9.6c-0.3,0-0.7-0.1-1.1-0.2c-0.4-0.1-0.8-0.3-1.1-0.6c-0.3-0.3-0.6-0.6-0.8-0.9
		c-0.2-0.4-0.3-0.8-0.3-1.3V80.5c0-0.6,0.1-1,0.3-1.4S428.5,78.4,428.8,78.1z M467.9,104.2c0-1.8-0.3-3.5-0.9-5.1
		c-0.6-1.6-1.4-3-2.5-4.2c-1.1-1.2-2.3-2.1-3.8-2.8c-1.5-0.7-3.1-1-4.9-1c-1.8,0-3.4,0.3-5,1c-1.6,0.7-3,1.5-4.1,2.7
		c-1.2,1.1-2.1,2.5-2.9,4c-0.7,1.5-1.2,3.2-1.2,4.9v0.6c0,1.8,0.3,3.6,1,5.2c0.7,1.6,1.6,3,2.8,4.2c1.2,1.2,2.6,2.1,4.2,2.8
		s3.3,1,5.1,1c1.8,0,3.4-0.3,4.9-1c1.5-0.7,2.7-1.6,3.8-2.8c1.1-1.2,1.9-2.6,2.5-4.2C467.6,107.8,467.9,106,467.9,104.2z"/>
</g>
<path class="st0" d="M271,40.1l-0.1-8.1l0-0.2l-0.1-8.1l-4.4,0.1l0-1.3l-6.7,0.1l0,1.2c0,0-37.2,0.6-38.5,0.5
	c-1.2-0.1-3.1-1.7-6.7-5.6c-3.2-3.4-9.3-10.6-31.7-10.4C160.4,8.4,76.2,9.4,76.2,9.4s-4.2-0.1-5.7,2c-0.4,0.5-0.8,1.2-1.3,2.3H22.3
	c-2.1,0-3.8,1.7-3.8,3.8v0.2c0,2.1,1.7,3.8,3.8,3.8h44.9c-0.2,1.9-0.4,4.2-0.5,6.9H34.6c-2.1,0-3.8,1.7-3.8,3.8v0.2
	c0,2.1,1.7,3.8,3.8,3.8h32.2c0.1,14.8,2.8,19.2,4.2,21.1c0.6,0.9,1.8,1.3,2.9,1.6c6.1-6.2,14.1-9.9,22.7-9.9c0.7,0,1.4,0.2,2.2,0.3
	c0.5-0.1,1,0.1,1.5,0.1h0.2c8.2,0,16.2,2.9,22.5,8.3c0.4,0.3,0.8,0.6,1.1,1c4.3-0.1,8.6-0.1,12.9-0.2c6.1-6.2,14.2-10,22.8-10
	c0.7,0,1.4-0.2,2.2-0.1c0.5-0.1,1-0.3,1.5-0.3h0.2c8.2,1.3,16.2,3.3,22.5,8.7c0.4,0.4,0.8,0.7,1.2,1.1c19.3-1,24.7-7.8,27.7-11
	c3.5-3.9,5.3-5.6,6.6-5.7c1.2-0.2,38.5-0.5,38.5-0.5l0,1.2l6.7-0.1l0-1.3L271,40.1z"/>
</svg>
